<svg width="364" height="26" viewBox="0 0 364 26" fill="none" xmlns="http://www.w3.org/2000/svg">
<path d="M312.015 25.678C299.653 25.678 293.137 23.198 287.388 21.009C282.324 19.086 277.953 17.42 268.623 17.42C259.309 17.42 254.938 19.081 249.89 21.009C244.141 23.198 237.625 25.678 225.263 25.678C212.909 25.678 206.401 23.198 200.66 21.009C195.612 19.082 191.249 17.42 181.943 17.42C172.621 17.42 168.258 19.081 163.21 21.009C157.461 23.198 150.954 25.678 138.599 25.678C126.244 25.678 119.737 23.198 113.988 21.009C108.94 19.082 104.577 17.42 95.263 17.42C85.949 17.42 81.586 19.081 76.538 21.009C70.789 23.198 64.282 25.678 51.927 25.678C39.572 25.678 33.065 23.198 27.316 21.009C22.2677 19.082 17.9048 17.42 8.5911 17.42C4.0272 17.42 0.333298 13.723 0.333298 9.16203C0.333298 4.60103 4.0262 0.904022 8.5911 0.904022C20.9448 0.904022 27.453 3.38402 33.202 5.57302C38.25 7.50002 42.613 9.16203 51.927 9.16203C61.241 9.16203 65.604 7.50102 70.652 5.57302C76.401 3.38402 82.908 0.904022 95.263 0.904022C107.617 0.904022 114.125 3.38402 119.874 5.57302C124.922 7.50002 129.285 9.16203 138.599 9.16203C147.913 9.16203 152.276 7.50102 157.324 5.57302C163.073 3.38402 169.58 0.904022 181.943 0.904022C194.297 0.904022 200.805 3.38402 206.546 5.57302C211.594 7.50002 215.957 9.16203 225.263 9.16203C234.585 9.16203 238.956 7.50102 244.012 5.57302C249.753 3.38402 256.268 0.904022 268.623 0.904022C280.993 0.904022 287.509 3.38402 293.258 5.57302C298.322 7.50002 302.685 9.16203 312.015 9.16203C321.345 9.16203 325.716 7.49702 330.78 5.57302C336.529 3.38402 343.045 0.904022 355.407 0.904022C359.971 0.904022 363.665 4.60103 363.665 9.16203C363.665 13.723 359.972 17.42 355.407 17.42C346.077 17.42 341.714 19.081 336.65 21.009C330.901 23.198 324.385 25.678 312.015 25.678Z" fill="#739AD6"/>
</svg>
