<svg width="257" height="380" viewBox="0 0 257 380" fill="none" xmlns="http://www.w3.org/2000/svg">
<path d="M36.609 0.162994L0.138016 8.42L95.751 190.084V12.009L36.609 0.162994Z" fill="#739AD6"/>
<path d="M99.228 190.084L171.927 254.526C176.368 258.967 183.945 257.021 185.697 250.989L256.12 8.42H94.141L99.228 190.084Z" fill="#A4CCFF"/>
<path d="M74.455 8.42L98.277 327.305C98.908 334.877 100.581 342.327 103.249 349.442L112.475 374.045C115.73 382.724 128.341 381.628 130.049 372.517L198.317 8.42101H74.455V8.42Z" fill="#8BB3EA"/>
<path d="M150.836 8.42L113.541 376.117C117.863 382.489 128.49 380.83 130.049 372.516L198.317 8.42H150.836Z" fill="#A4CCFF"/>
</svg>
