<svg width="512" height="512" viewBox="0 0 512 512" fill="none" xmlns="http://www.w3.org/2000/svg">
<path d="M256 455.973C244.945 455.973 233.895 453.129 224.035 447.445L106.055 379.41C86.3008 368.02 74.0312 346.781 74.0312 323.98V188.02C74.0312 165.219 86.3008 143.98 106.055 132.59L224.035 64.5547C243.754 53.1836 268.246 53.1875 287.965 64.5547L405.945 132.59C425.699 143.98 437.969 165.219 437.969 188.02V323.98C437.969 346.781 425.699 368.02 405.945 379.41L287.965 447.445C278.105 453.129 267.051 455.973 256 455.973V455.973ZM256 86.0156C250.129 86.0156 244.258 87.5234 239.023 90.543L121.039 158.578C110.547 164.629 104.031 175.906 104.031 188.02V323.98C104.031 336.09 110.547 347.371 121.039 353.422L239.023 421.453C249.496 427.492 262.504 427.492 272.977 421.453L390.961 353.422C401.453 347.371 407.969 336.09 407.969 323.98V188.02C407.969 175.91 401.453 164.629 390.961 158.578L272.977 90.543C267.742 87.5234 261.871 86.0156 256 86.0156V86.0156Z" fill="white"/>
<path d="M172.754 320.27C168.492 320.273 164.262 318.469 161.297 314.961C155.945 308.637 156.73 299.172 163.059 293.82L207.754 256L163.059 218.18C156.734 212.828 155.945 203.363 161.297 197.039C166.645 190.715 176.109 189.926 182.434 195.277L240.664 244.547C244.031 247.398 245.977 251.586 245.977 256C245.977 260.41 244.031 264.602 240.664 267.449L182.434 316.723C179.617 319.105 176.176 320.27 172.754 320.27Z" fill="white"/>
<path d="M339.254 320.27H268.707C260.422 320.27 253.707 313.555 253.707 305.27C253.707 296.988 260.422 290.27 268.707 290.27H339.254C347.539 290.27 354.254 296.988 354.254 305.27C354.254 313.555 347.539 320.27 339.254 320.27Z" fill="white"/>
</svg>
