<svg width="364" height="512" viewBox="0 0 364 512" fill="none" xmlns="http://www.w3.org/2000/svg">
<g id="fullstack">
<g id="backend">
<path id="Vector" d="M94.609 132.163L58.138 140.42L153.751 322.084V144.009L94.609 132.163Z" fill="#739AD6"/>
<path id="Vector_2" d="M157.228 322.084L229.927 386.526C234.368 390.967 241.945 389.021 243.697 382.989L314.12 140.42H152.141L157.228 322.084Z" fill="#A4CCFF"/>
<path id="Vector_3" d="M132.455 140.42L156.277 459.305C156.908 466.877 158.581 474.327 161.249 481.442L170.475 506.045C173.73 514.724 186.341 513.628 188.049 504.517L256.317 140.421H132.455V140.42Z" fill="#8BB3EA"/>
<path id="Vector_4" d="M208.836 140.42L171.541 508.117C175.863 514.489 186.49 512.83 188.049 504.516L256.317 140.42H208.836Z" fill="#A4CCFF"/>
</g>
<g id="frontend">
<path id="Vector_5" d="M307.697 132.163L208.401 4.4959C203.53 -1.76595 193.961 -1.43296 189.539 5.15388L102.487 132.162H307.697V132.163Z" fill="#DBEAFF"/>
<path id="Vector_6" d="M201.678 75.9742C198.576 72.3153 193.019 72.0603 189.595 75.4212L124.197 140.421L249.285 132.128L201.678 75.9742Z" fill="#C3DDFF"/>
<path id="Vector_7" d="M190.258 132.163L141.171 55.2757C138.166 50.4678 131.319 50.0488 127.751 54.4557L58.139 140.421H187.781L190.258 132.163Z" fill="#A4CCFF"/>
<path id="Vector_8" d="M165.485 107.39L197.016 0.207993C194.119 0.766979 191.37 2.42794 189.539 5.15488L119.466 107.39H165.485Z" fill="#C3DDFF"/>
</g>
<path id="api" d="M312.015 148.678C299.653 148.678 293.137 146.198 287.388 144.009C282.324 142.086 277.953 140.42 268.623 140.42C259.309 140.42 254.938 142.081 249.89 144.009C244.141 146.198 237.625 148.678 225.263 148.678C212.909 148.678 206.401 146.198 200.66 144.009C195.612 142.082 191.249 140.42 181.943 140.42C172.621 140.42 168.258 142.081 163.21 144.009C157.461 146.198 150.954 148.678 138.599 148.678C126.244 148.678 119.737 146.198 113.988 144.009C108.94 142.082 104.577 140.42 95.263 140.42C85.949 140.42 81.586 142.081 76.538 144.009C70.789 146.198 64.282 148.678 51.927 148.678C39.572 148.678 33.065 146.198 27.316 144.009C22.2677 142.082 17.9048 140.42 8.5911 140.42C4.0272 140.42 0.333298 136.723 0.333298 132.162C0.333298 127.601 4.0262 123.904 8.5911 123.904C20.9448 123.904 27.453 126.384 33.202 128.573C38.25 130.5 42.613 132.162 51.927 132.162C61.241 132.162 65.604 130.501 70.652 128.573C76.401 126.384 82.908 123.904 95.263 123.904C107.617 123.904 114.125 126.384 119.874 128.573C124.922 130.5 129.285 132.162 138.599 132.162C147.913 132.162 152.276 130.501 157.324 128.573C163.073 126.384 169.58 123.904 181.943 123.904C194.297 123.904 200.805 126.384 206.546 128.573C211.594 130.5 215.957 132.162 225.263 132.162C234.585 132.162 238.956 130.501 244.012 128.573C249.753 126.384 256.268 123.904 268.623 123.904C280.993 123.904 287.509 126.384 293.258 128.573C298.322 130.5 302.685 132.162 312.015 132.162C321.345 132.162 325.716 130.497 330.78 128.573C336.529 126.384 343.045 123.904 355.407 123.904C359.971 123.904 363.665 127.601 363.665 132.162C363.665 136.723 359.972 140.42 355.407 140.42C346.077 140.42 341.714 142.081 336.65 144.009C330.901 146.198 324.385 148.678 312.015 148.678Z" fill="#739AD6"/>
</g>
</svg>
