<svg width="512" height="402" viewBox="0 0 512 402" fill="none" xmlns="http://www.w3.org/2000/svg">
<g id="homeicon">
<g id="Group">
<path id="Vector" d="M382.606 108.517C382.414 108.516 382.221 108.515 382.029 108.515C349.995 108.465 319.644 94.671 298.589 70.529C267.223 34.565 220.989 11.907 169.468 12.136C75.956 12.551 -1.195 91.117 0.0140034 184.621C1.217 277.607 76.969 352.616 170.241 352.616C196.584 352.616 221.527 346.629 243.788 335.944C262.982 326.731 285.853 329.16 302.756 342.105C324.619 358.85 351.946 368.818 381.602 368.868C452.984 368.987 511.583 310.848 511.998 239.467C512.416 167.418 454.556 108.941 382.606 108.517V108.517Z" fill="url(#paint0_linear)"/>
<path id="Vector_2" d="M375.727 18.522V383.481C375.727 393.432 367.658 401.5 357.708 401.5H154.291C144.34 401.5 136.272 393.431 136.272 383.481V18.522C136.272 8.571 144.341 0.502991 154.291 0.502991H357.708C367.658 0.501991 375.727 8.571 375.727 18.522V18.522Z" fill="white"/>
<path id="Vector_3" d="M136.272 324.176V383.481C136.272 393.432 144.341 401.5 154.291 401.5H357.708C367.659 401.5 375.727 393.431 375.727 383.481V324.176H136.272Z" fill="#FFC4DF"/>
<path id="Vector_4" d="M327.382 25.343L335.386 0.5H176.614L184.618 25.343C185.777 28.941 189.095 31.375 192.838 31.375H319.162C322.905 31.376 326.223 28.941 327.382 25.343V25.343Z" fill="#B7C5FF"/>
<path id="Vector_5" d="M289.184 265.002H222.816C219.996 265.002 217.71 262.691 217.71 259.841C217.71 256.991 219.996 254.68 222.816 254.68H289.184C292.004 254.68 294.29 256.991 294.29 259.841C294.29 262.691 292.004 265.002 289.184 265.002Z" fill="#02FFB3"/>
<path id="Vector_6" d="M271.243 284.145H240.757C237.937 284.145 235.651 281.834 235.651 278.984C235.651 276.134 237.937 273.823 240.757 273.823H271.243C274.063 273.823 276.349 276.134 276.349 278.984C276.349 281.834 274.063 284.145 271.243 284.145Z" fill="#B7C5FF"/>
<path id="Vector_7" d="M271.243 303.288H240.757C237.937 303.288 235.651 300.977 235.651 298.127C235.651 295.277 237.937 292.966 240.757 292.966H271.243C274.063 292.966 276.349 295.277 276.349 298.127C276.349 300.977 274.063 303.288 271.243 303.288Z" fill="#B7C5FF"/>
<g id="Group_2">
<path id="Vector_8" d="M272.855 363.446C275.932 363.446 278.427 360.924 278.427 357.814C278.427 354.704 275.932 352.182 272.855 352.182C269.778 352.182 267.283 354.704 267.283 357.814C267.283 360.924 269.778 363.446 272.855 363.446Z" fill="#FF7EB8"/>
<path id="Vector_9" d="M256 363.446C259.077 363.446 261.572 360.924 261.572 357.814C261.572 354.704 259.077 352.182 256 352.182C252.923 352.182 250.428 354.704 250.428 357.814C250.428 360.924 252.923 363.446 256 363.446Z" fill="#FF7EB8"/>
<path id="Vector_10" d="M239.145 363.446C242.222 363.446 244.717 360.924 244.717 357.814C244.717 354.704 242.222 352.182 239.145 352.182C236.068 352.182 233.573 354.704 233.573 357.814C233.573 360.924 236.068 363.446 239.145 363.446Z" fill="#FF7EB8"/>
</g>
<path id="Vector_11" d="M256.002 81.341L169.879 154.078H189.908C191.567 154.078 192.912 155.423 192.912 157.082V234.044C192.912 235.703 194.257 237.048 195.916 237.048H316.088C317.747 237.048 319.092 235.703 319.092 234.044V157.082C319.092 155.423 320.437 154.078 322.096 154.078H342.125L256.002 81.341Z" fill="#FFA8CF"/>
<path id="Vector_12" d="M342.122 159.078C340.982 159.078 339.837 158.69 338.898 157.898L256.001 87.885L173.104 157.898C170.995 159.678 167.84 159.414 166.058 157.304C164.276 155.194 164.542 152.039 166.652 150.257L252.776 77.52C254.639 75.948 257.365 75.948 259.228 77.52L345.351 150.257C347.461 152.039 347.726 155.194 345.945 157.304C344.956 158.476 343.544 159.078 342.122 159.078V159.078Z" fill="#FF7EB8"/>
<g id="Group_3">
<path id="Vector_13" d="M260.341 237.049H218.281V169.287C218.281 166.522 220.523 164.28 223.288 164.28H255.334C258.099 164.28 260.341 166.522 260.341 169.287V237.049Z" fill="#6583FE"/>
<path id="Vector_14" d="M285.305 189.649C292.311 189.649 297.99 183.97 297.99 176.964C297.99 169.958 292.311 164.279 285.305 164.279C278.299 164.279 272.62 169.958 272.62 176.964C272.62 183.97 278.299 189.649 285.305 189.649Z" fill="#6583FE"/>
<path id="Vector_15" d="M198.138 74.084C198.138 64.914 190.678 57.454 181.508 57.454C172.338 57.454 164.878 64.914 164.878 74.084C164.878 78.609 166.7 82.712 169.642 85.714C166.7 88.715 164.878 92.819 164.878 97.344C164.878 100.106 167.117 102.344 169.878 102.344C172.639 102.344 174.878 100.106 174.878 97.344C174.878 93.689 177.852 90.714 181.508 90.714C185.164 90.714 188.138 93.689 188.138 97.344C188.138 100.106 190.377 102.344 193.138 102.344C195.899 102.344 198.138 100.106 198.138 97.344C198.138 92.819 196.316 88.716 193.374 85.714C196.316 82.713 198.138 78.609 198.138 74.084ZM181.508 67.454C185.164 67.454 188.138 70.429 188.138 74.084C188.138 77.739 185.164 80.714 181.508 80.714C177.852 80.714 174.878 77.739 174.878 74.084C174.878 70.429 177.852 67.454 181.508 67.454Z" fill="#6583FE"/>
</g>
<path id="Vector_16" d="M375.727 18.522V383.481C375.727 393.432 367.658 401.5 357.708 401.5H154.291C144.34 401.5 136.272 393.431 136.272 383.481V18.522C136.272 8.571 144.341 0.502991 154.291 0.502991H357.708C367.658 0.501991 375.727 8.571 375.727 18.522V18.522Z" fill="url(#paint1_linear)"/>
</g>
<g id="blink">
<path id="Vector_17" d="M413.5 107.522C410.739 107.522 408.5 105.284 408.5 102.522C408.5 99.196 405.794 96.49 402.469 96.49C399.708 96.49 397.469 94.252 397.469 91.49C397.469 88.728 399.708 86.49 402.469 86.49C405.795 86.49 408.5 83.784 408.5 80.459C408.5 77.697 410.739 75.459 413.5 75.459C416.261 75.459 418.5 77.697 418.5 80.459C418.5 83.784 421.206 86.49 424.531 86.49C427.292 86.49 429.531 88.728 429.531 91.49C429.531 94.252 427.292 96.49 424.531 96.49C421.205 96.49 418.5 99.196 418.5 102.522C418.5 105.283 416.262 107.522 413.5 107.522Z" fill="#97FFD2"/>
<path id="Vector_18" d="M92.7 274.132C89.939 274.132 87.7 271.894 87.7 269.132C87.7 265.807 84.994 263.101 81.668 263.101C78.907 263.101 76.668 260.863 76.668 258.101C76.668 255.339 78.907 253.101 81.668 253.101C84.994 253.101 87.7 250.395 87.7 247.069C87.7 244.307 89.939 242.069 92.7 242.069C95.461 242.069 97.7 244.307 97.7 247.069C97.7 250.395 100.406 253.101 103.731 253.101C106.492 253.101 108.731 255.339 108.731 258.101C108.731 260.863 106.492 263.101 103.731 263.101C100.405 263.101 97.7 265.807 97.7 269.132C97.7 271.894 95.461 274.132 92.7 274.132Z" fill="#6583FE"/>
<path id="Vector_19" d="M419.322 172.2C418.042 172.2 416.763 171.712 415.786 170.735L404.776 159.725C402.823 157.773 402.823 154.607 404.776 152.655L415.786 141.645C417.739 139.692 420.904 139.692 422.857 141.645L433.867 152.655C435.82 154.607 435.82 157.773 433.867 159.725L422.857 170.735C421.881 171.712 420.602 172.2 419.322 172.2ZM415.384 156.191L419.322 160.129L423.26 156.191L419.322 152.253L415.384 156.191Z" fill="#FF7EB8"/>
<path id="Vector_20" d="M101.979 218.529C99.218 218.529 96.979 216.291 96.979 213.529C96.979 210.203 94.273 207.497 90.948 207.497C88.187 207.497 85.948 205.259 85.948 202.497C85.948 199.735 88.187 197.497 90.948 197.497C94.274 197.497 96.979 194.791 96.979 191.466C96.979 188.704 99.218 186.466 101.979 186.466C104.74 186.466 106.979 188.704 106.979 191.466C106.979 194.791 109.685 197.497 113.011 197.497C115.772 197.497 118.011 199.735 118.011 202.497C118.011 205.259 115.772 207.497 113.011 207.497C109.685 207.497 106.979 210.203 106.979 213.529C106.979 216.291 104.74 218.529 101.979 218.529Z" fill="#6583FE"/>
</g>
</g>
<defs>
<linearGradient id="paint0_linear" x1="-7.851" y1="120.08" x2="518.431" y2="304.17" gradientUnits="userSpaceOnUse">
<stop offset="0.0485" stop-color="#D2DEFF"/>
<stop offset="0.9993" stop-color="#DCFDEE"/>
</linearGradient>
<linearGradient id="paint1_linear" x1="255.999" y1="0.502991" x2="255.999" y2="401.5" gradientUnits="userSpaceOnUse">
<stop offset="0.0028" stop-color="#FF7EB8" stop-opacity="0"/>
<stop offset="1" stop-color="#FF7EB8" stop-opacity="0.6"/>
</linearGradient>
</defs>
</svg>
