<svg width="195" height="213" viewBox="0 0 195 213" fill="none" xmlns="http://www.w3.org/2000/svg">
<g id="rocket">
<path id="Vector" d="M90.9431 117.901C86.8259 119.8 85.2755 125.016 85.303 129.55C85.3305 134.083 86.4358 138.595 85.4705 143.08C83.7032 151.447 75.0575 158.416 76.4808 166.688C77.4191 171.968 82.233 175.507 84.3138 180.41C87.8123 188.67 83.5977 200.475 90.4734 206.075C94.4311 209.319 100.894 208.434 104.889 204.834C106.793 202.943 108.288 200.673 109.274 198.175C110.259 195.678 110.712 193.013 110.6 190.359C110.569 184.095 108.458 177.946 110.014 171.9C111.57 165.855 117.027 160.271 116.155 154.035C115.283 147.799 108.537 144.363 105.982 138.66C104.88 135.507 104.243 132.192 104.09 128.82C103.66 125.487 102.736 121.986 100.213 119.861C97.6902 117.737 92.2437 115.918 90.8904 117.826" fill="#F5F5F5"/>
<path id="Vector_2" d="M91.6061 132.704C91.853 132.694 92.0479 134.629 92.2307 136.993C92.4794 138.427 92.4852 139.901 92.2478 141.353C91.9964 141.402 91.45 139.452 91.3432 137.095C91.0908 135.642 91.1809 134.137 91.6061 132.704V132.704Z" fill="#263238"/>
<path id="Vector_3" d="M93.5328 115.406C93.6211 116.864 93.4664 118.334 93.075 119.756C92.9735 121.216 92.6224 122.655 92.0374 124.008C91.7856 123.994 91.7947 122.022 92.2149 119.625C92.3132 118.142 92.7656 116.694 93.5328 115.406V115.406Z" fill="#263238"/>
<path id="Vector_4" d="M97.7632 102.945C97.9633 103.072 97.7971 104.028 97.3373 105.13C96.8774 106.232 96.3309 107.091 96.1311 107.027C95.9313 106.962 96.0878 105.959 96.5427 104.833C96.9977 103.707 97.5631 102.817 97.7632 102.945Z" fill="#263238"/>
<path id="Vector_5" d="M74.8926 45.9883C74.8926 45.9883 73.9789 20.974 96.9899 1.76409C96.9899 1.76409 117.48 12.0238 120.494 41.0581" fill="#E965AB"/>
<path id="Vector_6" d="M75.528 123.459C77.0711 123.4 118.369 123.122 118.369 123.122L120.732 44.9765C120.829 41.7508 120.266 38.5618 119.078 35.6115C117.89 32.6612 116.103 30.014 113.831 27.8374C111.558 25.6608 108.85 24.0023 105.876 22.9671C102.903 21.9318 99.7303 21.5424 96.5586 21.8233V21.8233C90.6696 22.3478 85.1317 25.152 81.0965 29.6526C77.0612 34.1533 74.8393 40.0041 74.8926 45.9883L75.528 123.459Z" fill="#E965AB"/>
<path id="Vector_7" d="M74.1347 93.0484C74.1347 93.0484 47.3466 107.853 49.8544 138.251L77.5252 122.216L74.1347 93.0484Z" fill="#6FC3ED"/>
<path id="Vector_8" d="M116.14 120.588L138.013 136.065C138.013 136.065 146.903 103.361 115.696 92.6011L116.14 120.588Z" fill="#6FC3ED"/>
<path id="Vector_9" d="M92.1742 97.3099L91.0622 146.406C91.0622 146.406 95.5222 147.535 95.8109 146.387C96.0995 145.238 97.8369 109.11 98.3999 97.3347C98.4204 96.8839 98.3448 96.4372 98.1783 96.0251C98.0119 95.6129 97.7585 95.2451 97.4354 94.9468C97.1124 94.6486 96.7274 94.4268 96.3067 94.2969C95.8861 94.1669 95.4398 94.1318 94.9983 94.1938V94.1938C94.2455 94.2864 93.5429 94.6542 93.0228 95.2281C92.5027 95.802 92.2009 96.5424 92.1742 97.3099V97.3099Z" fill="#6FC3ED"/>
<path id="Vector_10" d="M106.237 44.9124C101.264 39.7344 92.9649 39.7707 87.6996 44.9936C82.4344 50.2164 82.197 58.6479 87.1694 63.8259C92.1418 69.0039 100.441 68.9676 105.706 63.7448C110.972 58.5219 111.209 50.0904 106.237 44.9124Z" fill="#FAFAFA"/>
<path id="Vector_11" d="M103.912 43.0231C103.855 43.112 102.94 42.4052 100.961 41.855C98.1936 41.0246 95.2002 41.1741 92.4634 42.2792C90.5927 43.022 88.9054 44.1947 87.5371 45.7029C85.9723 47.4286 84.872 49.5295 84.348 51.7919C83.7396 54.3067 83.8868 56.9244 84.7703 59.3031C85.7019 61.8425 87.42 63.9853 89.6728 65.4177C91.9257 66.8501 94.5951 67.4968 97.2899 67.2631C99.8018 67.0611 102.223 66.1091 104.247 64.5273C106.073 63.0924 107.509 61.2049 108.408 59.0562C109.193 57.1772 109.54 55.1518 109.419 53.1427C109.253 50.1969 108.119 47.4245 106.197 45.2673C104.832 43.7538 103.817 43.1713 103.874 43.0824C104.135 43.1943 104.376 43.3476 104.588 43.5367C105.26 43.9697 105.877 44.4811 106.429 45.0608C108.191 46.8859 109.377 49.2085 109.843 51.7471C110.309 54.2857 110.036 56.9314 109.056 59.3637C108.088 61.7889 106.468 63.9066 104.387 65.4693C102.306 67.0319 99.8494 67.9749 97.304 68.1878C94.4223 68.4503 91.5645 67.7647 89.1548 66.2325C86.7451 64.7004 84.9118 62.4035 83.9269 59.6826C82.9918 57.1618 82.8389 54.3875 83.4881 51.7239C84.0142 49.4793 85.0898 47.3887 86.6138 45.6489C88.1378 43.9091 90.06 42.5772 92.1997 41.7786C95.0937 40.638 98.2577 40.5569 101.136 41.5495C101.895 41.8033 102.62 42.1455 103.297 42.5697C103.524 42.6879 103.731 42.8408 103.912 43.0231V43.0231Z" fill="#263238"/>
<path id="Vector_12" d="M120.064 33.875C119.969 34.0232 117.736 32.8323 113.85 31.5895C111.574 30.8683 109.245 30.3124 106.88 29.9259C101.087 29.0161 95.1483 29.1571 89.3358 30.3426C86.9648 30.8347 84.6259 31.4966 82.3366 32.3233C78.4262 33.7705 76.1628 35.0578 76.0812 34.9019C76.5551 34.5093 77.0715 34.174 77.6195 33.9029C78.2386 33.5313 78.8757 33.193 79.5282 32.8895C80.291 32.542 81.1341 32.0999 82.1295 31.7338C84.4212 30.7992 86.7817 30.0649 89.1846 29.5388C95.0888 28.2081 101.155 28.0625 107.038 29.1103C109.432 29.5322 111.781 30.1556 114.061 30.9742C115.045 31.288 115.888 31.6988 116.649 32.0164C117.294 32.2881 117.922 32.5969 118.53 32.9414C119.085 33.1745 119.602 33.4889 120.064 33.875V33.875Z" fill="#263238"/>
<path id="Vector_13" d="M119.637 37.8913C119.543 38.0395 117.272 36.8453 113.319 35.5809C111.008 34.852 108.644 34.2878 106.245 33.8925C103.301 33.4397 100.317 33.234 97.3236 33.2777C94.333 33.3603 91.3459 33.6882 88.3915 34.2584C85.971 34.7488 83.5828 35.4143 81.2451 36.2497C77.2586 37.6902 74.9478 38.9889 74.8662 38.833C75.3617 38.4167 75.9038 38.0624 76.4803 37.778C77.1067 37.4072 77.7537 37.0748 78.4175 36.7828C79.1897 36.4205 80.0708 35.9817 81.1377 35.6611C83.4485 34.732 85.8217 33.9863 88.2353 33.4307C91.2362 32.8005 94.2779 32.4428 97.3238 32.362C100.368 32.3273 103.401 32.5634 106.388 33.0677C108.822 33.5009 111.21 34.1356 113.53 34.9656C114.529 35.2885 115.386 35.7084 116.147 36.026C116.807 36.2923 117.448 36.6024 118.066 36.9544C118.624 37.205 119.151 37.5192 119.637 37.8913V37.8913Z" fill="#263238"/>
</g>
</svg>
