<svg width="512" height="512" viewBox="0 0 512 512" fill="none" xmlns="http://www.w3.org/2000/svg">
<g id="webdev">
<g id="Group">
<g id="Group_2">
<path id="Vector" d="M505.626 290.983C493.8 256.373 467.488 230.823 435.774 218.781C419.344 212.542 408.428 196.925 408.187 179.352C408.182 178.968 408.175 178.583 408.166 178.198C406.659 113.616 352.678 61.868 288.089 62.977C249.995 63.631 216.301 82.332 195.184 110.897C176.999 135.496 148.694 150.862 118.104 150.846C117.206 150.846 116.307 150.855 115.404 150.875C53.487 152.228 0.837001 205.353 0.0110008 267.278C-0.867999 333.21 52.314 386.932 118.043 386.932C168.99 386.932 212.392 354.655 228.929 309.435C233.256 297.603 246.081 291.261 258.212 294.663C258.363 294.705 258.515 294.748 258.667 294.79C269.766 297.854 277.125 308.43 276.217 319.909C275 335.292 276.798 351.164 282.015 366.705C302.536 427.84 369.203 461.39 430.508 441.385C493.219 420.92 526.887 353.201 505.626 290.983Z" fill="url(#paint0_linear)"/>
<path id="Vector_2" d="M324 116.631V430.637C324 438.918 317.279 445.629 309.008 445.629H89.163C80.892 445.629 74.171 438.918 74.171 430.637V116.631C74.171 108.36 80.892 101.639 89.163 101.639H309.008C317.279 101.639 324 108.36 324 116.631V116.631Z" fill="#D2DEFF"/>
<path id="Vector_3" d="M299.546 301.199V177.283C299.546 175.627 298.204 174.285 296.548 174.285H101.623C99.967 174.285 98.625 175.627 98.625 177.283V301.197C98.625 302.853 99.967 304.195 101.623 304.195H296.548C298.204 304.197 299.546 302.854 299.546 301.199Z" fill="#9FB0FE"/>
<path id="Vector_4" d="M323.999 255.715V413.152H146.062C137.788 413.152 131.072 406.437 131.072 398.162V255.715H323.999Z" fill="#9FB0FE"/>
<path id="Vector_5" d="M324.002 149.776V116.628C324.002 108.349 317.291 101.638 309.012 101.638H89.164C80.885 101.638 74.174 108.349 74.174 116.628V149.776H324.002Z" fill="#4369FD"/>
<path id="Vector_6" d="M380.897 67.556V381.565C380.897 389.839 374.182 396.555 365.907 396.555H146.06C137.786 396.555 131.07 389.84 131.07 381.565V67.556C131.07 59.282 137.785 52.566 146.06 52.566H365.908C374.182 52.566 380.897 59.282 380.897 67.556V67.556Z" fill="#9FB0FE"/>
<path id="Vector_7" d="M131.07 357.872V381.566C131.07 389.84 137.785 396.556 146.06 396.556H365.908C374.182 396.556 380.898 389.841 380.898 381.566V357.872H131.07Z" fill="#B7C5FF"/>
<path id="Vector_8" d="M185.615 52.567H146.06C137.786 52.567 131.07 59.282 131.07 67.557V381.566C131.07 389.84 137.785 396.556 146.06 396.556H185.615V52.567Z" fill="white"/>
<path id="Vector_9" d="M380.897 100.704V67.556C380.897 59.277 374.186 52.566 365.907 52.566H146.06C137.781 52.566 131.07 59.277 131.07 67.556V100.704H380.897Z" fill="#FF7EB8"/>
<path id="Vector_10" d="M411.816 117.648H452.687C455.517 117.648 457.81 115.354 457.81 112.525C457.81 109.696 455.517 107.402 452.687 107.402H411.816C408.986 107.402 406.693 109.696 406.693 112.525C406.693 115.354 408.987 117.648 411.816 117.648Z" fill="#FF7EB8"/>
<path id="Vector_11" d="M411.816 135.65H431.685C434.515 135.65 436.808 133.356 436.808 130.527C436.808 127.698 434.515 125.404 431.685 125.404H411.816C408.986 125.404 406.693 127.698 406.693 130.527C406.693 133.356 408.987 135.65 411.816 135.65V135.65Z" fill="#4369FD"/>
<path id="Vector_12" d="M411.816 153.652H431.685C434.515 153.652 436.808 151.358 436.808 148.529C436.808 145.7 434.515 143.406 431.685 143.406H411.816C408.986 143.406 406.693 145.7 406.693 148.529C406.693 151.358 408.987 153.652 411.816 153.652V153.652Z" fill="#4369FD"/>
<path id="Vector_13" d="M411.816 189.656H452.687C455.517 189.656 457.81 187.362 457.81 184.533C457.81 181.704 455.517 179.41 452.687 179.41H411.816C408.986 179.41 406.693 181.704 406.693 184.533C406.693 187.362 408.987 189.656 411.816 189.656Z" fill="#FF7EB8"/>
<path id="Vector_14" d="M411.816 207.659H431.685C434.515 207.659 436.808 205.365 436.808 202.536C436.808 199.707 434.515 197.413 431.685 197.413H411.816C408.986 197.413 406.693 199.707 406.693 202.536C406.693 205.364 408.987 207.659 411.816 207.659V207.659Z" fill="#4369FD"/>
<path id="Vector_15" d="M411.816 225.661H431.685C434.515 225.661 436.808 223.367 436.808 220.538C436.808 217.709 434.515 215.415 431.685 215.415H411.816C408.986 215.415 406.693 217.709 406.693 220.538C406.693 223.367 408.987 225.661 411.816 225.661V225.661Z" fill="#4369FD"/>
<path id="Vector_16" d="M452.688 161.408H432.819C429.989 161.408 427.696 163.702 427.696 166.531C427.696 169.36 429.989 171.654 432.819 171.654H452.688C455.518 171.654 457.811 169.36 457.811 166.531C457.811 163.702 455.517 161.408 452.688 161.408Z" fill="#4369FD"/>
<path id="Vector_17" d="M411.816 261.665H452.687C455.517 261.665 457.81 259.371 457.81 256.542C457.81 253.713 455.517 251.419 452.687 251.419H411.816C408.986 251.419 406.693 253.713 406.693 256.542C406.693 259.371 408.987 261.665 411.816 261.665Z" fill="#FF7EB8"/>
<path id="Vector_18" d="M411.816 279.667H431.685C434.515 279.667 436.808 277.373 436.808 274.544C436.808 271.715 434.515 269.421 431.685 269.421H411.816C408.986 269.421 406.693 271.715 406.693 274.544C406.693 277.373 408.987 279.667 411.816 279.667V279.667Z" fill="#4369FD"/>
<path id="Vector_19" d="M411.816 297.669H431.685C434.515 297.669 436.808 295.375 436.808 292.546C436.808 289.717 434.515 287.423 431.685 287.423H411.816C408.986 287.423 406.693 289.717 406.693 292.546C406.693 295.376 408.987 297.669 411.816 297.669V297.669Z" fill="#4369FD"/>
<path id="Vector_20" d="M452.688 233.417H432.819C429.989 233.417 427.696 235.711 427.696 238.54C427.696 241.369 429.989 243.663 432.819 243.663H452.688C455.518 243.663 457.811 241.369 457.811 238.54C457.811 235.711 455.517 233.417 452.688 233.417Z" fill="#4369FD"/>
<g id="Group_3">
<path id="Vector_21" d="M244.026 136.076C243.101 132.255 239.71 129.587 235.779 129.587H230.887C226.956 129.587 223.565 132.255 222.64 136.076L212.447 178.198C211.798 180.882 213.447 183.584 216.131 184.234C218.814 184.885 221.518 183.234 222.167 180.55L226.66 161.981H240.002L244.495 180.55C245.049 182.839 247.096 184.376 249.352 184.376C249.741 184.376 250.137 184.33 250.532 184.234C253.216 183.585 254.866 180.882 254.217 178.198L244.026 136.076ZM229.083 151.98L232.082 139.588H234.587L237.586 151.98H229.083Z" fill="white"/>
<path id="Vector_22" d="M285.288 129.587H267.637C264.875 129.587 262.636 131.826 262.636 134.588V179.374C262.636 182.136 264.875 184.375 267.637 184.375C270.399 184.375 272.638 182.136 272.638 179.374V164.751H285.288C289.966 164.751 293.772 160.945 293.772 156.267V138.072C293.771 133.393 289.966 129.587 285.288 129.587V129.587ZM283.77 154.75H272.637V139.588H283.77V154.75Z" fill="white"/>
<path id="Vector_23" d="M316.548 174.669V139.292C318.503 138.613 319.916 136.774 319.916 134.587C319.916 131.825 317.677 129.586 314.915 129.586H308.18C305.418 129.586 303.179 131.825 303.179 134.587C303.179 136.774 304.591 138.613 306.547 139.292V174.669C304.592 175.348 303.179 177.187 303.179 179.374C303.179 182.136 305.418 184.375 308.18 184.375H314.915C317.677 184.375 319.916 182.136 319.916 179.374C319.916 177.187 318.503 175.348 316.548 174.669Z" fill="white"/>
<path id="Vector_24" d="M335.93 184.483C333.168 184.483 330.929 182.244 330.929 179.482V179.337C330.929 176.575 333.168 174.336 335.93 174.336C338.692 174.336 340.931 176.575 340.931 179.337V179.482C340.931 182.244 338.692 184.483 335.93 184.483Z" fill="white"/>
</g>
<path id="Vector_25" d="M231.19 225.208H215.457C212.842 225.208 210.506 227.12 210.258 229.723C209.973 232.71 212.314 235.223 215.242 235.223H231.19C233.956 235.223 236.198 232.981 236.198 230.215C236.198 227.45 233.956 225.208 231.19 225.208V225.208Z" fill="#D2DEFF"/>
<path id="Vector_26" d="M291.621 225.208H254.207C251.441 225.208 249.199 227.45 249.199 230.216C249.199 232.982 251.441 235.224 254.207 235.224H291.836C294.764 235.224 297.105 232.711 296.82 229.724C296.572 227.12 294.236 225.208 291.621 225.208V225.208Z" fill="#97FFD2"/>
<path id="Vector_27" d="M267.194 246.174H215.457C212.842 246.174 210.506 248.086 210.258 250.689C209.973 253.676 212.314 256.189 215.242 256.189H267.194C269.96 256.189 272.202 253.947 272.202 251.181C272.202 248.416 269.96 246.174 267.194 246.174V246.174Z" fill="#D2DEFF"/>
<path id="Vector_28" d="M321.624 246.174H290.21C287.444 246.174 285.202 248.416 285.202 251.182C285.202 253.948 287.444 256.19 290.21 256.19H321.839C324.768 256.19 327.108 253.676 326.823 250.69C326.575 248.086 324.24 246.174 321.624 246.174Z" fill="#97FFD2"/>
<path id="Vector_29" d="M252.192 267.141H215.457C212.842 267.141 210.506 269.053 210.258 271.656C209.973 274.643 212.314 277.156 215.242 277.156H252.193C254.959 277.156 257.201 274.914 257.201 272.148C257.2 269.383 254.958 267.141 252.192 267.141V267.141Z" fill="#D2DEFF"/>
<path id="Vector_30" d="M291.621 267.141H275.209C272.443 267.141 270.201 269.383 270.201 272.149C270.201 274.915 272.443 277.157 275.209 277.157H291.836C294.764 277.157 297.105 274.644 296.82 271.657C296.572 269.053 294.236 267.141 291.621 267.141V267.141Z" fill="#97FFD2"/>
<path id="Vector_31" d="M321.625 288.107H260.208C257.442 288.107 255.2 290.349 255.2 293.115C255.2 295.881 257.442 298.123 260.208 298.123H321.84C324.768 298.123 327.109 295.61 326.824 292.623C326.575 290.019 324.24 288.107 321.625 288.107V288.107Z" fill="#97FFD2"/>
<path id="Vector_32" d="M237.191 288.107H215.457C212.842 288.107 210.506 290.019 210.258 292.622C209.973 295.609 212.314 298.122 215.242 298.122H237.191C239.957 298.122 242.199 295.88 242.199 293.114C242.198 290.349 239.956 288.107 237.191 288.107Z" fill="#D2DEFF"/>
<path id="Vector_33" d="M163.343 230.143C163.343 227.381 161.104 225.143 158.342 225.143C155.58 225.143 153.341 227.382 153.341 230.143V230.288C153.341 233.05 155.58 235.289 158.342 235.289C161.104 235.289 163.343 233.05 163.343 230.288V230.143Z" fill="#B7C5FF"/>
<path id="Vector_34" d="M158.343 288.042C155.581 288.042 153.342 290.281 153.342 293.043V293.188C153.342 295.95 155.581 298.188 158.343 298.188C161.105 298.188 163.344 295.949 163.344 293.188V293.043C163.343 290.281 161.104 288.042 158.343 288.042Z" fill="#B7C5FF"/>
<path id="Vector_35" d="M380.897 67.556V381.565C380.897 389.839 374.182 396.555 365.907 396.555H146.06C137.786 396.555 131.07 389.84 131.07 381.565V67.556C131.07 59.282 137.785 52.566 146.06 52.566H365.908C374.182 52.566 380.897 59.282 380.897 67.556V67.556Z" fill="url(#paint1_linear)"/>
<path id="Vector_36" d="M112.23 130.78C114.991 130.78 117.23 128.542 117.23 125.78V125.635C117.23 122.873 114.991 120.635 112.23 120.635C109.469 120.635 107.23 122.873 107.23 125.635V125.78C107.23 128.542 109.469 130.78 112.23 130.78Z" fill="#2D58E0"/>
<path id="Vector_37" d="M169.126 71.563C166.365 71.563 164.126 73.801 164.126 76.563V76.708C164.126 79.47 166.365 81.708 169.126 81.708C171.887 81.708 174.126 79.47 174.126 76.708V76.563C174.126 73.801 171.887 71.563 169.126 71.563Z" fill="#FE2C8F"/>
<path id="Vector_38" d="M188.438 71.563C185.677 71.563 183.438 73.801 183.438 76.563V76.708C183.438 79.47 185.677 81.708 188.438 81.708C191.199 81.708 193.438 79.47 193.438 76.708V76.563C193.438 73.801 191.199 71.563 188.438 71.563Z" fill="#FE2C8F"/>
<path id="Vector_39" d="M207.749 71.563C204.988 71.563 202.749 73.801 202.749 76.563V76.708C202.749 79.47 204.988 81.708 207.749 81.708C210.51 81.708 212.749 79.47 212.749 76.708V76.563C212.749 73.801 210.51 71.563 207.749 71.563Z" fill="#FE2C8F"/>
</g>
</g>
<g id="blink">
<path id="Vector_40" d="M99.521 65.437C96.76 65.437 94.521 63.199 94.521 60.437C94.521 57.128 91.829 54.436 88.52 54.436C85.759 54.436 83.52 52.198 83.52 49.436C83.52 46.674 85.759 44.436 88.52 44.436C91.829 44.436 94.521 41.744 94.521 38.434C94.521 35.672 96.76 33.434 99.521 33.434C102.282 33.434 104.521 35.672 104.521 38.434C104.521 41.744 107.213 44.436 110.522 44.436C113.283 44.436 115.522 46.674 115.522 49.436C115.522 52.198 113.283 54.436 110.522 54.436C107.213 54.436 104.521 57.128 104.521 60.437C104.521 63.199 102.282 65.437 99.521 65.437Z" fill="#FF7EB8"/>
<path id="Vector_41" d="M427.696 79.557C426.416 79.557 425.137 79.069 424.16 78.092L413.164 67.097C412.226 66.159 411.7 64.888 411.7 63.562C411.7 62.236 412.227 60.964 413.164 60.027L424.16 49.031C425.098 48.093 426.369 47.566 427.696 47.566C429.022 47.566 430.294 48.093 431.232 49.031L442.227 60.027C444.18 61.979 444.18 65.145 442.227 67.097L431.232 78.092C430.255 79.069 428.976 79.557 427.696 79.557V79.557ZM423.771 63.562L427.695 67.486L431.619 63.562L427.695 59.637L423.771 63.562Z" fill="#97FFD2"/>
<path id="Vector_42" d="M468.828 330.557C466.067 330.557 463.828 328.319 463.828 325.557C463.828 322.239 461.129 319.539 457.811 319.539C455.05 319.539 452.811 317.301 452.811 314.539C452.811 311.777 455.05 309.539 457.811 309.539C461.129 309.539 463.828 306.84 463.828 303.522C463.828 300.76 466.067 298.522 468.828 298.522C471.589 298.522 473.828 300.76 473.828 303.522C473.828 306.839 476.527 309.539 479.845 309.539C482.606 309.539 484.845 311.777 484.845 314.539C484.845 317.301 482.606 319.539 479.845 319.539C476.527 319.539 473.828 322.238 473.828 325.557C473.828 328.319 471.589 330.557 468.828 330.557Z" fill="#6583FE"/>
<path id="Vector_43" d="M43.172 172.998C40.411 172.998 38.172 170.76 38.172 167.998C38.172 164.681 35.473 161.981 32.155 161.981C29.394 161.981 27.155 159.743 27.155 156.981C27.155 154.219 29.394 151.981 32.155 151.981C35.473 151.981 38.172 149.282 38.172 145.963C38.172 143.201 40.411 140.963 43.172 140.963C45.933 140.963 48.172 143.201 48.172 145.963C48.172 149.281 50.871 151.981 54.189 151.981C56.95 151.981 59.189 154.219 59.189 156.981C59.189 159.743 56.95 161.981 54.189 161.981C50.871 161.981 48.172 164.68 48.172 167.998C48.172 170.759 45.934 172.998 43.172 172.998Z" fill="#6583FE"/>
</g>
<g id="setting">
<path id="Vector_44" d="M460.567 385.584L444.291 380.949C442.697 374.451 440.132 368.332 436.754 362.763L444.989 347.971C445.687 346.713 445.468 345.141 444.451 344.123L433.327 332.999C432.309 331.981 430.736 331.763 429.479 332.461L414.687 340.696C409.119 337.319 402.999 334.753 396.501 333.159L391.866 316.883C391.471 315.495 390.205 314.54 388.762 314.54H373.032C371.589 314.54 370.324 315.495 369.928 316.883L365.293 333.159C358.795 334.753 352.676 337.318 347.107 340.696L332.315 332.461C331.057 331.763 329.485 331.982 328.467 332.999L317.343 344.123C316.325 345.141 316.106 346.714 316.805 347.971L325.04 362.763C321.663 368.331 319.097 374.451 317.503 380.949L301.227 385.584C299.839 385.979 298.884 387.245 298.884 388.688V404.418C298.884 405.861 299.839 407.127 301.227 407.522L317.503 412.157C319.097 418.655 321.662 424.774 325.04 430.343L316.805 445.135C316.107 446.393 316.326 447.965 317.343 448.983L328.467 460.107C329.485 461.125 331.058 461.344 332.315 460.645L347.107 452.41C352.675 455.787 358.795 458.353 365.293 459.947L369.928 476.223C370.323 477.611 371.589 478.566 373.032 478.566H388.762C390.205 478.566 391.47 477.611 391.866 476.223L396.501 459.947C402.999 458.353 409.118 455.788 414.687 452.41L429.479 460.645C430.737 461.343 432.309 461.124 433.327 460.107L444.451 448.983C445.469 447.965 445.688 446.392 444.989 445.135L436.754 430.343C440.131 424.775 442.697 418.655 444.291 412.157L460.567 407.522C461.955 407.127 462.91 405.861 462.91 404.418V388.688C462.91 387.245 461.955 385.979 460.567 385.584ZM380.897 422.348C366.651 422.348 355.101 410.798 355.101 396.552C355.101 382.306 366.651 370.756 380.897 370.756C395.143 370.756 406.693 382.306 406.693 396.552C406.693 410.798 395.143 422.348 380.897 422.348Z" fill="#FF7EB8"/>
</g>
</g>
<defs>
<linearGradient id="paint0_linear" x1="-6.647" y1="162.996" x2="545.624" y2="325.428" gradientUnits="userSpaceOnUse">
<stop stop-color="#FFDBED"/>
<stop offset="1" stop-color="#DCFDEE"/>
</linearGradient>
<linearGradient id="paint1_linear" x1="255.984" y1="52.566" x2="255.984" y2="396.556" gradientUnits="userSpaceOnUse">
<stop offset="0.0028" stop-color="#FF7EB8" stop-opacity="0"/>
<stop offset="1" stop-color="#FF7EB8" stop-opacity="0.6"/>
</linearGradient>
</defs>
</svg>
